<?xml version="1.0" encoding="utf-8"?>
<!-- Generator: Adobe Illustrator 15.0.2, SVG Export Plug-In . SVG Version: 6.00 Build 0)  -->
<!DOCTYPE svg PUBLIC "-//W3C//DTD SVG 1.1//EN" "http://www.w3.org/Graphics/SVG/1.1/DTD/svg11.dtd">
<svg version="1.1" id="Layer_1" xmlns="http://www.w3.org/2000/svg" xmlns:xlink="http://www.w3.org/1999/xlink" x="0px" y="0px"
	 width="569px" height="748px" viewBox="0 0 569 748" enable-background="new 0 0 569 748" xml:space="preserve">

	<defs>
  		<filter id="fadingBlur" filterUnits="userSpaceOnUse" x="0" y="0" width="575" height="750">
    		<feGaussianBlur in="SourceGraphic" stdDeviation="15" />
  		</filter>
		<g id="dff">
			<rect x="25" y="25" fill="none" stroke="#0FF" stroke-width="15" stroke-linecap="square" width="520.952" height="703.742"/>
			<path fill="#0FF" d="M115.477,237.713c5.539,0,10.443-0.521,14.713-1.562c4.269-1.041,7.913-2.571,10.933-4.592
			c3.02-2.02,5.8-4.79,8.341-8.31c2.54-3.519,4.624-7.966,6.248-13.339c1.625-5.373,2.437-11.537,2.437-18.493
			c0-8.163-1.198-15.421-3.593-21.773c-2.396-6.351-6.008-11.568-10.84-15.65c-3.708-3.165-8.184-5.352-13.432-6.56
			c-3.749-0.875-9.184-1.312-16.307-1.312H82.426v91.591H115.477L115.477,237.713z M94.546,156.93h19.243
			c7.206,0,12.433,0.625,15.682,1.875c4.499,1.749,8.319,5.196,11.465,10.34c3.144,5.145,4.717,12.506,4.717,22.085
			c0,6.915-0.802,12.798-2.405,17.65c-1.604,4.853-3.842,8.715-6.716,11.589c-2.042,2.042-4.779,3.624-8.216,4.749
			c-3.436,1.125-8.175,1.687-14.213,1.687H94.546V156.93L94.546,156.93z"/>
		</g>
	</defs>
	<g id="blurred">
		<use xlink:href="#dff" filter="url(#fadingBlur)" />
  		<use xlink:href="#dff" />
	</g>
</svg>
