<?xml version="1.0" encoding="utf-8"?>
<!-- Generator: Adobe Illustrator 15.0.2, SVG Export Plug-In . SVG Version: 6.00 Build 0)  -->
<!DOCTYPE svg PUBLIC "-//W3C//DTD SVG 1.1//EN" "http://www.w3.org/Graphics/SVG/1.1/DTD/svg11.dtd">
<svg version="1.1" id="Layer_1" xmlns="http://www.w3.org/2000/svg" xmlns:xlink="http://www.w3.org/1999/xlink" x="0px" y="0px"
	 width="518.32px" height="433px" viewBox="0 0 518.32 433" enable-background="new 0 0 518.32 433" xml:space="preserve">

	<g id="orGate">
		<path fill="#00FF00" d="M74.191,44.759H187.85c47.192,0,184.242-1.309,281.784,171.275
		C421.61,300.953,363.63,343.82,311.269,365.271c-54.01,22.114-99.156,22.037-123.418,22.037H74.505
		c18.876-31.316,47.857-91.176,47.857-171.273C122.362,135.699,93.057,75.987,74.191,44.759 M15,14.533l20.151,24.559
		c0,0,56.986,70.524,56.986,176.942c0,106.416-56.986,176.941-56.986,176.941L15,417.533h31.8h141.05
		c24.262,0,77.471,0.245,137.271-24.244c59.801-24.487,126.307-73.988,178.201-170.015l-13.224-7.24l13.224-7.241
		C399.52,16.708,235.774,14.533,187.85,14.533H46.8H15z"/>
	</g>
</svg>
