<?xml version="1.0" encoding="utf-8"?>
<!-- Generator: Adobe Illustrator 15.0.2, SVG Export Plug-In . SVG Version: 6.00 Build 0)  -->
<!DOCTYPE svg PUBLIC "-//W3C//DTD SVG 1.1//EN" "http://www.w3.org/Graphics/SVG/1.1/DTD/svg11.dtd">
<svg version="1.1" id="Layer_1" xmlns="http://www.w3.org/2000/svg" xmlns:xlink="http://www.w3.org/1999/xlink" x="0px" y="0px"
	 width="578.05px" height="433px" viewBox="0 0 578.05 433" enable-background="new 0 0 578.05 433" xml:space="preserve">

	<g id="xorGate">
		<path fill="#111" d="M75.591,388.351c-16.121,26.683-22.703,30.27-22.703,30.27H16l20.177-24.594
		c0,0,57.07-70.628,57.07-177.199c0-106.573-57.07-177.201-57.07-177.201L16,15.033h36.888c7.882,9.46,14.348,16.711,22.387,30.269
		c18.9,31.274,48.242,91.074,48.242,171.525C123.517,297.042,94.291,356.87,75.591,388.351"/>
		<path fill="#111" d="M133.291,45.302h113.824c47.254,0,184.51-1.311,282.196,171.524
		C481.217,301.87,423.152,344.799,370.715,366.28c-54.086,22.149-99.303,22.07-123.6,22.07H133.606
		c18.899-31.362,47.926-91.309,47.926-171.524C181.532,136.376,152.19,76.576,133.291,45.302 M74.015,15.033l20.178,24.593
		c0,0,57.07,70.628,57.07,177.2c0,106.572-57.07,177.2-57.07,177.2L74.015,418.62h31.843h141.257
		c24.297,0,77.584,0.247,137.473-24.279c59.887-24.523,126.492-74.095,178.461-170.263l-13.244-7.252l13.244-7.252
		C459.096,17.211,295.109,15.033,247.115,15.033H105.858H74.015z"/>
	</g>
</svg>
