<?xml version="1.0" encoding="utf-8"?>
<!-- Generator: Adobe Illustrator 15.0.2, SVG Export Plug-In . SVG Version: 6.00 Build 0)  -->
<!DOCTYPE svg PUBLIC "-//W3C//DTD SVG 1.1//EN" "http://www.w3.org/Graphics/SVG/1.1/DTD/svg11.dtd">
<svg version="1.1" id="Layer_1" xmlns="http://www.w3.org/2000/svg" xmlns:xlink="http://www.w3.org/1999/xlink" x="0px" y="0px"
	 width="632px" height="433px" viewBox="0 0 632 433" enable-background="new 0 0 632 433" xml:space="preserve">

	<g id="xnorGate">
		<path fill="#111" d="M76.471,388.025c-16.121,26.682-22.703,30.269-22.703,30.269H16.88
		L37.057,393.7c0,0,57.07-70.628,57.07-177.199c0-106.573-57.07-177.201-57.07-177.201L16.88,14.707h36.888
		c7.882,9.46,14.348,16.711,22.387,30.269c18.9,31.274,48.242,91.074,48.242,171.525
		C124.397,296.716,95.172,356.544,76.471,388.025"/>
		<path fill="#111" d="M134.17,44.976h113.825c47.254,0,184.51-1.311,282.194,171.524
		c-48.094,85.044-106.158,127.973-158.596,149.454c-54.085,22.149-99.302,22.071-123.599,22.071H134.486
		c18.898-31.363,47.926-91.31,47.926-171.525C182.412,136.05,153.07,76.25,134.17,44.976 M74.896,14.707L95.072,39.3
		c0,0,57.07,70.628,57.07,177.2c0,106.572-57.07,177.2-57.07,177.2l-20.177,24.594h31.843h141.257
		c24.297,0,77.584,0.247,137.471-24.279c59.888-24.523,126.495-74.095,178.461-170.263l-13.242-7.252l13.242-7.252
		C459.976,16.885,295.989,14.707,247.995,14.707H106.738H74.896z"/>
		<path fill="none" stroke="#111" stroke-width="7" d="M628.88,216.501
		c0,22.288-18.072,40.359-40.359,40.359c-22.289,0-40.358-18.071-40.358-40.359s18.069-40.358,40.358-40.358
		C610.808,176.143,628.88,194.213,628.88,216.501L628.88,216.501z"/>
	</g>
</svg>
