<?xml version="1.0" encoding="utf-8"?>
<!-- Generator: Adobe Illustrator 15.0.2, SVG Export Plug-In . SVG Version: 6.00 Build 0)  -->
<!DOCTYPE svg PUBLIC "-//W3C//DTD SVG 1.1//EN" "http://www.w3.org/Graphics/SVG/1.1/DTD/svg11.dtd">
<svg version="1.1" id="Layer_1" xmlns="http://www.w3.org/2000/svg" xmlns:xlink="http://www.w3.org/1999/xlink" x="0px" y="0px"
	 width="488.322px" height="403px" viewBox="0 0 488.322 403" enable-background="new 0 0 488.322 403" xml:space="preserve">
<g>
	<g>
		<defs>
			<rect id="SVGID_1_" width="488.322" height="403"/>
		</defs>
		<clipPath id="SVGID_2_">
			<use xlink:href="#SVGID_1_"  overflow="visible"/>
		</clipPath>
		<path clip-path="url(#SVGID_2_)" fill="#010101" d="M59.191,29.76H172.85c47.192,0,184.242-1.31,281.784,171.275
			C406.61,285.953,348.63,328.82,296.269,350.271c-54.01,22.113-99.156,22.037-123.418,22.037H59.505
			c18.876-31.316,47.857-91.176,47.857-171.273C107.362,120.699,78.057,60.987,59.191,29.76 M0-0.467l20.151,24.559
			c0,0,56.986,70.524,56.986,176.943c0,106.416-56.986,176.941-56.986,176.941L0,402.533h31.8h141.05
			c24.262,0,77.471,0.246,137.271-24.244c59.801-24.486,126.307-73.988,178.201-170.014l-13.224-7.24l13.224-7.242
			C384.52,1.709,220.774-0.467,172.85-0.467H31.8H0z"/>
	</g>
</g>
</svg>
