<?xml version="1.0" encoding="utf-8"?>
<!-- Generator: Adobe Illustrator 15.0.2, SVG Export Plug-In . SVG Version: 6.00 Build 0)  -->
<!DOCTYPE svg PUBLIC "-//W3C//DTD SVG 1.1//EN" "http://www.w3.org/Graphics/SVG/1.1/DTD/svg11.dtd">
<svg version="1.1" id="Layer_1" xmlns="http://www.w3.org/2000/svg" xmlns:xlink="http://www.w3.org/1999/xlink" x="0px" y="0px"
	 width="498.5px" height="403.934px" viewBox="0 0 498.5 403.934" enable-background="new 0 0 498.5 403.934" xml:space="preserve">
<g>
	<g>
		<defs>
			<rect id="SVGID_1_" x="0.5" width="498" height="403.002"/>
		</defs>
		<clipPath id="SVGID_2_">
			<use xlink:href="#SVGID_1_"  overflow="visible"/>
		</clipPath>
		<path clip-path="url(#SVGID_2_)" fill="#010101" d="M28.855,28.856h153.876h21.04h2.702h0.301
			c98.568,0,168.303,77.147,168.303,173.11c0,95.964-74.544,173.111-173.111,173.111H28.855V28.856z M0,0v14.428v375.077v14.429
			h14.427h192.347c113.789,0,201.966-90.885,201.966-201.967C408.74,90.886,320.563,0,206.774,0H14.427H0z"/>
		<path clip-path="url(#SVGID_2_)" fill="none" stroke="#010101" stroke-width="3" d="M494.818,201.966
			c0,22.309-18.088,40.394-40.395,40.394c-22.306,0-40.394-18.085-40.394-40.394c0-22.307,18.088-40.393,40.394-40.393
			C476.73,161.573,494.818,179.659,494.818,201.966L494.818,201.966z"/>
	</g>
</g>
</svg>
