<?xml version="1.0" encoding="utf-8"?>
<!-- Generator: Adobe Illustrator 15.0.2, SVG Export Plug-In . SVG Version: 6.00 Build 0)  -->
<!DOCTYPE svg PUBLIC "-//W3C//DTD SVG 1.1//EN" "http://www.w3.org/Graphics/SVG/1.1/DTD/svg11.dtd">
<svg version="1.1" id="Layer_1" xmlns="http://www.w3.org/2000/svg" xmlns:xlink="http://www.w3.org/1999/xlink" x="0px" y="0px"
	 width="528px" height="433px" viewBox="0 0 528 433" enable-background="new 0 0 528 433" xml:space="preserve">
<g>
	<g>
		<defs>
			<rect id="SVGID_1_" x="15" y="15" width="498" height="403.002"/>
		</defs>
		<clipPath id="SVGID_2_">
			<use xlink:href="#SVGID_1_"  overflow="visible"/>
		</clipPath>
		<path clip-path="url(#SVGID_2_)" fill="#010101" d="M43.355,43.856h153.876h21.04h2.702h0.301
			c98.568,0,168.303,77.147,168.303,173.11c0,95.964-74.544,173.111-173.111,173.111H43.355V43.856z M14.5,15v14.427v375.077v14.429
			h14.427h192.347c113.789,0,201.966-90.885,201.966-201.967C423.24,105.886,335.063,15,221.274,15H28.927H14.5z"/>
		<path clip-path="url(#SVGID_2_)" fill="none" stroke="#010101" stroke-width="3" d="M509.318,216.966
			c0,22.309-18.088,40.394-40.395,40.394c-22.306,0-40.394-18.085-40.394-40.394c0-22.307,18.088-40.393,40.394-40.393
			C491.23,176.573,509.318,194.659,509.318,216.966L509.318,216.966z"/>
	</g>
</g>
</svg>
