<?xml version="1.0" encoding="utf-8"?>
<!-- Generator: Adobe Illustrator 15.0.2, SVG Export Plug-In . SVG Version: 6.00 Build 0)  -->
<!DOCTYPE svg PUBLIC "-//W3C//DTD SVG 1.1//EN" "http://www.w3.org/Graphics/SVG/1.1/DTD/svg11.dtd">
<svg version="1.1" id="Layer_1" xmlns="http://www.w3.org/2000/svg" xmlns:xlink="http://www.w3.org/1999/xlink" x="0px" y="0px"
	 width="548.049px" height="403.62px" viewBox="0 0 548.049 403.62" enable-background="new 0 0 548.049 403.62"
	 xml:space="preserve">
<g>
	<g>
		<defs>
			<rect id="SVGID_1_" width="548.049" height="403"/>
		</defs>
		<clipPath id="SVGID_2_">
			<use xlink:href="#SVGID_1_"  overflow="visible"/>
		</clipPath>
		<path clip-path="url(#SVGID_2_)" fill="#010101" d="M60.591,373.351c-16.121,26.683-22.703,30.27-22.703,30.27H1l20.177-24.594
			c0,0,57.07-70.628,57.07-177.199c0-106.573-57.07-177.201-57.07-177.201L1,0.033h36.888c7.882,9.46,14.348,16.711,22.387,30.269
			c18.9,31.274,48.242,91.074,48.242,171.525C108.517,282.042,79.291,341.87,60.591,373.351"/>
		<path clip-path="url(#SVGID_2_)" fill="#010101" d="M118.291,30.302h113.824c47.254,0,184.51-1.311,282.196,171.524
			C466.217,286.87,408.152,329.799,355.715,351.28c-54.086,22.149-99.303,22.07-123.6,22.07H118.606
			c18.899-31.362,47.926-91.309,47.926-171.524C166.532,121.376,137.19,61.576,118.291,30.302 M59.015,0.033l20.178,24.593
			c0,0,57.07,70.629,57.07,177.2c0,106.572-57.07,177.2-57.07,177.2L59.015,403.62h31.843h141.257
			c24.297,0,77.584,0.247,137.473-24.279c59.887-24.523,126.492-74.095,178.461-170.263l-13.244-7.252l13.244-7.252
			C444.096,2.211,280.109,0.033,232.115,0.033H90.858H59.015z"/>
	</g>
</g>
</svg>
