<?xml version="1.0" encoding="utf-8"?>
<!-- Generator: Adobe Illustrator 15.0.2, SVG Export Plug-In . SVG Version: 6.00 Build 0)  -->
<!DOCTYPE svg PUBLIC "-//W3C//DTD SVG 1.1//EN" "http://www.w3.org/Graphics/SVG/1.1/DTD/svg11.dtd">
<svg version="1.1" id="Layer_1" xmlns="http://www.w3.org/2000/svg" xmlns:xlink="http://www.w3.org/1999/xlink" x="0px" y="0px"
	 width="615.88px" height="403.294px" viewBox="0 0 615.88 403.294" enable-background="new 0 0 615.88 403.294"
	 xml:space="preserve">
<g>
	<g>
		<defs>
			<rect id="SVGID_1_" width="615.88" height="403"/>
		</defs>
		<clipPath id="SVGID_2_">
			<use xlink:href="#SVGID_1_"  overflow="visible"/>
		</clipPath>
		<path clip-path="url(#SVGID_2_)" fill="#010101" d="M61.471,373.025c-16.121,26.682-22.703,30.269-22.703,30.269H1.88
			L22.057,378.7c0,0,57.07-70.628,57.07-177.199c0-106.573-57.07-177.201-57.07-177.201L1.88-0.293h36.888
			c7.882,9.46,14.348,16.711,22.387,30.27c18.9,31.273,48.242,91.073,48.242,171.524C109.397,281.716,80.172,341.544,61.471,373.025
			"/>
		<path clip-path="url(#SVGID_2_)" fill="#010101" d="M119.17,29.977h113.825c47.254,0,184.51-1.312,282.194,171.523
			c-48.094,85.044-106.158,127.973-158.596,149.454c-54.085,22.149-99.302,22.071-123.599,22.071H119.486
			c18.898-31.363,47.926-91.31,47.926-171.525C167.412,121.05,138.07,61.25,119.17,29.977 M59.896-0.293L80.072,24.3
			c0,0,57.07,70.628,57.07,177.2s-57.07,177.2-57.07,177.2l-20.177,24.594h31.843h141.257c24.297,0,77.584,0.247,137.471-24.279
			c59.888-24.523,126.495-74.095,178.461-170.263l-13.242-7.252l13.242-7.252C444.976,1.885,280.989-0.293,232.995-0.293H91.738
			H59.896z"/>
		<path clip-path="url(#SVGID_2_)" fill="none" stroke="#010101" stroke-width="3" d="M613.88,201.501
			c0,22.288-18.072,40.359-40.359,40.359c-22.289,0-40.358-18.071-40.358-40.359s18.069-40.358,40.358-40.358
			C595.808,161.143,613.88,179.213,613.88,201.501L613.88,201.501z"/>
	</g>
</g>
</svg>
